<svg xmlns="http://www.w3.org/2000/svg" width="16.057" height="16.058" viewBox="0 0 16.057 16.058"><defs><style>.a{fill:#fff;}</style></defs><path class="a" d="M227.942,2072.9a3.092,3.092,0,0,1,3.016,3.016v10.027a3.092,3.092,0,0,1-3.016,3.015h-1.96v-6.182h2.111l.3-2.412h-2.412v-1.508a1.607,1.607,0,0,1,.226-.9c.151-.226.452-.3.98-.3h1.282v-2.186a12.84,12.84,0,0,0-1.885-.075,3.076,3.076,0,0,0-2.262.829,3.266,3.266,0,0,0-.829,2.337v1.809h-2.111v2.412h2.111v6.182h-5.579a3.092,3.092,0,0,1-3.016-3.016v-10.027a3.092,3.092,0,0,1,3.016-3.015h10.027Z" transform="translate(-214.901 -2072.9)"/></svg>