<svg xmlns="http://www.w3.org/2000/svg" width="16.133" height="16.134" viewBox="0 0 16.133 16.134"><defs><style>.a{fill:#fff;}</style></defs><path class="a" d="M214.081,872.167a2.577,2.577,0,1,0-.754,1.885A2.5,2.5,0,0,0,214.081,872.167Zm1.432,0a3.983,3.983,0,0,1-1.206,2.94,3.869,3.869,0,0,1-2.94,1.206,3.983,3.983,0,0,1-2.94-1.206,4.146,4.146,0,0,1,2.94-7.087,4.119,4.119,0,0,1,4.146,4.146Zm1.131-4.222a.735.735,0,0,1-.3.679,1.123,1.123,0,0,1-.678.3.735.735,0,0,1-.678-.3.956.956,0,0,1-.3-.679.735.735,0,0,1,.3-.678.956.956,0,0,1,.678-.3.735.735,0,0,1,.678.3A1.123,1.123,0,0,1,216.644,867.945Zm-5.277-2.337h-2.94c-.377,0-.754.075-1.055.075-.3.075-.528.151-.754.226a2.71,2.71,0,0,0-.9.6,3.785,3.785,0,0,0-.6.9c-.075.226-.151.452-.226.754a4.634,4.634,0,0,0-.075,1.055v5.88c0,.377.075.754.075,1.055.075.3.151.528.226.754a2.711,2.711,0,0,0,.6.9,3.79,3.79,0,0,0,.9.6c.226.075.452.151.754.226a4.633,4.633,0,0,0,1.055.075h5.88c.377,0,.754-.075,1.055-.075.3-.075.528-.151.754-.226a2.712,2.712,0,0,0,.9-.6,3.79,3.79,0,0,0,.6-.9c.075-.226.151-.452.226-.754a4.637,4.637,0,0,0,.075-1.055v-5.88c0-.377-.075-.754-.075-1.055-.075-.3-.151-.528-.226-.754a2.71,2.71,0,0,0-.6-.9,3.787,3.787,0,0,0-.9-.6c-.226-.075-.452-.151-.754-.226a4.64,4.64,0,0,0-1.055-.075h-2.94Zm8.067,6.559c0,1.583,0,2.714-.075,3.317a5.308,5.308,0,0,1-1.282,3.393,4.792,4.792,0,0,1-3.393,1.282c-.6,0-1.734.075-3.317.075s-2.714,0-3.317-.075a5.307,5.307,0,0,1-3.393-1.282,4.791,4.791,0,0,1-1.282-3.393c0-.6-.075-1.734-.075-3.317s0-2.714.075-3.317a5.307,5.307,0,0,1,1.282-3.392,4.791,4.791,0,0,1,3.393-1.282c.6,0,1.734-.075,3.317-.075s2.714,0,3.317.075a5.308,5.308,0,0,1,3.393,1.282,4.791,4.791,0,0,1,1.282,3.392C219.433,869.528,219.433,870.583,219.433,872.167Z" transform="translate(-203.301 -864.1)"/></svg>