<svg xmlns="http://www.w3.org/2000/svg" width="21.41" height="22.837" viewBox="0 0 21.41 22.837"><defs><style>.a{fill:orange;}</style></defs><path class="a" d="M834.9,1668.348v-10.4a.389.389,0,0,0-.11-.322.411.411,0,0,0-.329-.107h-.988a.411.411,0,0,0-.329.107.389.389,0,0,0-.11.322v10.4a.387.387,0,0,0,.11.321.409.409,0,0,0,.329.107h.988a.409.409,0,0,0,.329-.107C834.9,1668.669,834.9,1668.562,834.9,1668.348Zm3.843,0v-10.4a.389.389,0,0,0-.11-.322.41.41,0,0,0-.329-.107h-.988a.411.411,0,0,0-.329.107.389.389,0,0,0-.11.322v10.4a.387.387,0,0,0,.11.321.409.409,0,0,0,.329.107h.988a.409.409,0,0,0,.329-.107C838.738,1668.669,838.738,1668.562,838.738,1668.348Zm3.952,0v-10.4a.389.389,0,0,0-.11-.322.41.41,0,0,0-.329-.107h-.988a.41.41,0,0,0-.329.107.389.389,0,0,0-.11.322v10.4a.387.387,0,0,0,.11.321.409.409,0,0,0,.329.107h.988a.409.409,0,0,0,.329-.107A.463.463,0,0,0,842.69,1668.348Zm-8.234-14.688h6.807l-.768-1.716-.22-.214h-4.831a.233.233,0,0,0-.219.214Zm14.053.536v.965a.389.389,0,0,1-.11.322.41.41,0,0,1-.329.107h-1.427v14.045a3.047,3.047,0,0,1-.769,2.144,2.014,2.014,0,0,1-1.757.858H831.492a2.5,2.5,0,0,1-1.757-.858,3.4,3.4,0,0,1-.769-2.144v-14.152h-1.427a.409.409,0,0,1-.329-.107.387.387,0,0,1-.11-.322v-.965a.387.387,0,0,1,.11-.321.409.409,0,0,1,.329-.107h4.721l1.1-2.466a2.961,2.961,0,0,1,.769-.965,2.741,2.741,0,0,1,1.208-.429h4.831a1.854,1.854,0,0,1,1.208.429,1.37,1.37,0,0,1,.769.965l1.1,2.466h4.721a.409.409,0,0,1,.329.107C848.509,1653.874,848.509,1653.981,848.509,1654.2Z" transform="translate(-827.1 -1649.8)"/></svg>