<svg xmlns="http://www.w3.org/2000/svg" width="16.51" height="13.269" viewBox="0 0 16.51 13.269"><defs><style>.a{fill:#fff;}</style></defs><path class="a" d="M178.11,1653.208a7.281,7.281,0,0,1-1.659,1.734v.452a11.212,11.212,0,0,1-.377,2.714,11.346,11.346,0,0,1-1.206,2.563,9.06,9.06,0,0,1-1.96,2.186,9.387,9.387,0,0,1-2.714,1.508,10.027,10.027,0,0,1-3.393.6,9.728,9.728,0,0,1-5.2-1.508c.226,0,.528.075.829.075a6.655,6.655,0,0,0,4.222-1.432,3.1,3.1,0,0,1-1.96-.678,3.284,3.284,0,0,1-1.206-1.659c.226,0,.452.075.6.075a3.781,3.781,0,0,0,.9-.151,3.475,3.475,0,0,1-1.96-1.131,3.16,3.16,0,0,1-.754-2.111v-.075a3.511,3.511,0,0,0,1.508.452,3.491,3.491,0,0,1-1.131-1.206,3.061,3.061,0,0,1-.377-1.583,3.5,3.5,0,0,1,.452-1.734,9.024,9.024,0,0,0,3.091,2.488,9.759,9.759,0,0,0,3.845,1.056,2.829,2.829,0,0,1-.075-.754,3.3,3.3,0,0,1,.98-2.412,3.185,3.185,0,0,1,2.412-.98,3.418,3.418,0,0,1,2.488,1.056,6.5,6.5,0,0,0,2.111-.829,3.12,3.12,0,0,1-1.508,1.885A8.043,8.043,0,0,0,178.11,1653.208Z" transform="translate(-161.601 -1651.7)"/></svg>